<svg width="60" height="60" viewBox="0 0 60 60" fill="none" xmlns="http://www.w3.org/2000/svg">
<circle cx="43.75" cy="43.75" r="6.25" stroke="white" stroke-width="2"/>
<path d="M52.5 52.5L48.75 48.75" stroke="white" stroke-width="2" stroke-linecap="round"/>
<path fill-rule="evenodd" clip-rule="evenodd" d="M10 13C10 9.22876 10 7.34315 11.1716 6.17157C12.3431 5 14.2288 5 18 5H42C45.7712 5 47.6569 5 48.8284 6.17157C50 7.34315 50 9.22876 50 13V37.6263C48.4119 36.0056 46.1984 35 43.75 35C38.9175 35 35 38.9175 35 43.75C35 48.5825 38.9175 52.5 43.75 52.5C45.257 52.5 46.6751 52.1191 47.9131 51.4482L49.4312 52.9664C49.2763 53.2941 49.0792 53.5776 48.8284 53.8284C47.6569 55 45.7712 55 42 55H18C14.2288 55 12.3431 55 11.1716 53.8284C10 52.6569 10 50.7712 10 47V13ZM47.5 43.75C47.5 41.6789 45.8211 40 43.75 40C41.6789 40 40 41.6789 40 43.75C40 45.8211 41.6789 47.5 43.75 47.5C45.8211 47.5 47.5 45.8211 47.5 43.75ZM28.5 35C28.5 34.4477 28.0523 34 27.5 34H20C19.4477 34 19 34.4477 19 35C19 35.5523 19.4477 36 20 36H27.5C28.0523 36 28.5 35.5523 28.5 35ZM36 25C36 24.4477 35.5523 24 35 24H20C19.4477 24 19 24.4477 19 25C19 25.5523 19.4477 26 20 26H35C35.5523 26 36 25.5523 36 25ZM31 15C31 14.4477 30.5523 14 30 14H20C19.4477 14 19 14.4477 19 15C19 15.5523 19.4477 16 20 16H30C30.5523 16 31 15.5523 31 15Z" fill="white"/>
</svg>
