<svg width="60" height="9" viewBox="0 0 60 9" fill="none" xmlns="http://www.w3.org/2000/svg">
<path d="M34.5 4.5C34.5 5.39002 34.2361 6.26004 33.7416 7.00006C33.2471 7.74008 32.5443 8.31686 31.7221 8.65745C30.8998 8.99805 29.995 9.08717 29.1221 8.91353C28.2492 8.7399 27.4474 8.31131 26.818 7.68198C26.1887 7.05264 25.7601 6.25082 25.5865 5.3779C25.4128 4.50499 25.502 3.60019 25.8425 2.77792C26.1831 1.95566 26.7599 1.25285 27.4999 0.758386C28.24 0.263919 29.11 0 30 0C31.1935 0 32.3381 0.474105 33.182 1.31802C34.0259 2.16193 34.5 3.30653 34.5 4.5ZM55.5 0C54.61 0 53.74 0.263919 52.9999 0.758386C52.2599 1.25285 51.6831 1.95566 51.3425 2.77792C51.002 3.60019 50.9128 4.50499 51.0865 5.3779C51.2601 6.25082 51.6887 7.05264 52.318 7.68198C52.9474 8.31131 53.7492 8.7399 54.6221 8.91353C55.495 9.08717 56.3998 8.99805 57.2221 8.65745C58.0443 8.31686 58.7471 7.74008 59.2416 7.00006C59.7361 6.26004 60 5.39002 60 4.5C60 3.30653 59.5259 2.16193 58.682 1.31802C57.8381 0.474105 56.6935 0 55.5 0ZM4.5 0C3.60999 0 2.73996 0.263919 1.99994 0.758386C1.25992 1.25285 0.683138 1.95566 0.342544 2.77792C0.00194979 3.60019 -0.0871652 4.50499 0.0864683 5.3779C0.260102 6.25082 0.688685 7.05264 1.31802 7.68198C1.94736 8.31131 2.74918 8.7399 3.6221 8.91353C4.49501 9.08717 5.39981 8.99805 6.22208 8.65745C7.04435 8.31686 7.74715 7.74008 8.24162 7.00006C8.73608 6.26004 9 5.39002 9 4.5C9 3.30653 8.5259 2.16193 7.68198 1.31802C6.83807 0.474105 5.69348 0 4.5 0Z" fill="white"/>
</svg>
