<svg width="60" height="60" viewBox="0 0 60 60" fill="none" xmlns="http://www.w3.org/2000/svg">
<path d="M30 7.5C42.4264 7.5 52.5 17.5736 52.5 30C52.5 42.4264 42.4264 52.5 30 52.5C17.5736 52.5 7.5 42.4264 7.5 30C7.5 17.5736 17.5736 7.5 30 7.5ZM30 16.5C29.4477 16.5 29 16.9477 29 17.5V29H17.5C16.9477 29 16.5 29.4477 16.5 30C16.5 30.5523 16.9477 31 17.5 31H29V42.5C29 43.0523 29.4477 43.5 30 43.5C30.5523 43.5 31 43.0523 31 42.5V31H42.5C43.0523 31 43.5 30.5523 43.5 30C43.5 29.4477 43.0523 29 42.5 29H31V17.5C31 16.9477 30.5523 16.5 30 16.5Z" fill="white"/>
</svg>
