<svg width="60" height="65" viewBox="0 0 60 65" fill="none" xmlns="http://www.w3.org/2000/svg">
<path d="M59.3191 47.4833C57.5845 44.4957 55.0059 36.0422 55.0059 25.0011C55.0059 18.3704 52.3715 12.0113 47.6823 7.32265C42.9931 2.63403 36.6331 0 30.0016 0C23.37 0 17.0101 2.63403 12.3208 7.32265C7.63162 12.0113 4.99724 18.3704 4.99724 25.0011C4.99724 36.0453 2.41555 44.4957 0.68087 47.4833C0.237889 48.2428 0.00304832 49.1058 2.94769e-05 49.985C-0.00298937 50.8642 0.225921 51.7287 0.663676 52.4913C1.10143 53.2539 1.73255 53.8875 2.49339 54.3284C3.25422 54.7693 4.11788 55.0017 4.99724 55.0024H17.7526C18.3295 57.8249 19.8636 60.3615 22.0956 62.1832C24.3276 64.005 27.1204 65 30.0016 65C32.8828 65 35.6755 64.005 37.9075 62.1832C40.1395 60.3615 41.6737 57.8249 42.2506 55.0024H55.0059C55.885 55.0012 56.7482 54.7683 57.5086 54.3272C58.269 53.8861 58.8997 53.2524 59.3371 52.49C59.7745 51.7275 60.0031 50.8632 60 49.9842C59.9968 49.1052 59.762 48.2426 59.3191 47.4833ZM30.0016 60.0026C28.4507 60.0021 26.9382 59.521 25.6721 58.6256C24.4059 57.7301 23.4485 56.4643 22.9316 55.0024H37.0715C36.5546 56.4643 35.5972 57.7301 34.3311 58.6256C33.065 59.521 31.5524 60.0021 30.0016 60.0026ZM4.99724 50.0022C7.40391 45.8645 9.99811 36.2766 9.99811 25.0011C9.99811 19.6965 12.1056 14.6092 15.857 10.8583C19.6084 7.10744 24.6963 5.00022 30.0016 5.00022C35.3068 5.00022 40.3948 7.10744 44.1461 10.8583C47.8975 14.6092 50.005 19.6965 50.005 25.0011C50.005 36.2672 52.593 45.8551 55.0059 50.0022H4.99724Z" fill="white"/>
</svg>
