<svg width="60" height="60" viewBox="0 0 60 60" fill="none" xmlns="http://www.w3.org/2000/svg">
<path d="M23.8291 23.4502C22.0878 25.0914 21 27.4183 21 30C21 34.9706 25.0294 39 30 39C32.5817 39 34.9076 37.9112 36.5488 36.1699L37.2559 36.877C35.4335 38.7991 32.8578 40 30 40C24.4772 40 20 35.5228 20 30C20 27.1422 21.1999 24.5656 23.1221 22.7432L23.8291 23.4502ZM30 20C35.5228 20 40 24.4772 40 30C40 31.5684 39.6377 33.0519 38.9941 34.373L38.2402 33.6191C38.7274 32.5114 39 31.2878 39 30C39 25.0294 34.9706 21 30 21C28.7121 21 27.4877 21.2714 26.3799 21.7588L25.626 21.0049C26.9472 20.3612 28.4314 20 30 20Z" fill="#222222"/>
<path d="M19.384 19.0049C18.3873 19.6435 17.4336 20.336 16.5325 21.0576C12.7709 24.0699 9.96582 27.5128 8.68188 29.2178C8.48647 29.4773 8.36911 29.6346 8.29517 29.7656C8.23095 29.8795 8.21899 29.9413 8.21899 30C8.21899 30.0587 8.23095 30.1205 8.29517 30.2344C8.36911 30.3654 8.48647 30.5227 8.68188 30.7822C9.96582 32.4872 12.7709 35.9301 16.5325 38.9424C20.3017 41.9607 24.9733 44.5 30.0002 44.5C34.0108 44.4999 37.7931 42.8807 41.0735 40.6943L41.7961 41.417C38.3756 43.7277 34.3412 45.4999 30.0002 45.5C24.6436 45.5 19.7529 42.802 15.9075 39.7227C12.0549 36.6375 9.19237 33.1224 7.88306 31.3838C7.70305 31.1448 7.53793 30.9274 7.42407 30.7256C7.30049 30.5065 7.21899 30.2757 7.21899 30C7.21899 29.7243 7.30049 29.4935 7.42407 29.2744C7.53793 29.0726 7.70305 28.8552 7.88306 28.6162C9.19237 26.8776 12.0549 23.3625 15.9075 20.2773C16.7741 19.5834 17.6952 18.9109 18.6614 18.2822L19.384 19.0049ZM30.0002 14.5C35.3569 14.5001 40.2477 17.198 44.093 20.2773C47.9456 23.3625 50.8082 26.8776 52.1174 28.6162C52.2974 28.8552 52.4626 29.0726 52.5764 29.2744C52.7 29.4935 52.7815 29.7243 52.7815 30C52.7815 30.2757 52.7 30.5065 52.5764 30.7256C52.4626 30.9274 52.2974 31.1448 52.1174 31.3838C50.824 33.1014 48.0132 36.5515 44.2307 39.6094L43.5198 38.8984C47.2547 35.8963 50.0408 32.4791 51.3186 30.7822C51.514 30.5227 51.6314 30.3654 51.7053 30.2344C51.7695 30.1206 51.7815 30.0587 51.7815 30C51.7815 29.9413 51.7695 29.8794 51.7053 29.7656C51.6314 29.6346 51.514 29.4773 51.3186 29.2178C50.0347 27.5129 47.2296 24.0699 43.468 21.0576C39.6988 18.0393 35.0272 15.5001 30.0002 15.5C27.2263 15.5 24.5605 16.2734 22.095 17.4736L21.3489 16.7275C24.0062 15.3886 26.9265 14.5 30.0002 14.5Z" fill="#222222"/>
<path d="M12.5 5L52.5 45" stroke="#222222"/>
</svg>
