<svg width="60" height="60" viewBox="0 0 60 60" fill="none" xmlns="http://www.w3.org/2000/svg">
<path d="M30 0C46.5682 0.00014366 59.9998 13.4276 60 29.9912C60 46.555 46.5683 59.9833 30 59.9834C13.4316 59.9834 0 46.555 0 29.9912C0.000164363 13.4275 13.4317 0 30 0ZM44.04 15.9551C43.6495 15.5647 43.0166 15.5648 42.626 15.9551L29.999 28.5771L17.373 15.9551C16.9825 15.5648 16.3485 15.5647 15.958 15.9551C15.5679 16.3455 15.5678 16.9788 15.958 17.3691L28.584 29.9912L15.959 42.6143C15.5686 43.0047 15.5685 43.6379 15.959 44.0283C16.3496 44.4188 16.9835 44.4188 17.374 44.0283L29.999 31.4062L42.625 44.0283C43.0155 44.4186 43.6485 44.4185 44.0391 44.0283C44.4296 43.6378 44.4296 43.0047 44.0391 42.6143L31.4131 29.9912L44.04 17.3691C44.4304 16.9787 44.4304 16.3455 44.04 15.9551Z" fill="#910101"/>
</svg>
