<svg width="60" height="60" viewBox="0 0 60 60" fill="none" xmlns="http://www.w3.org/2000/svg">
<path d="M59.3244 56.0626L44.8968 41.6379C49.0785 36.6174 51.1637 30.1781 50.7187 23.6595C50.2736 17.1408 47.3326 11.0446 42.5073 6.63917C37.6821 2.23371 31.3441 -0.141893 24.812 0.0065612C18.2798 0.155015 12.0563 2.81609 7.43622 7.43622C2.81609 12.0563 0.155015 18.2798 0.0065612 24.812C-0.141893 31.3441 2.23371 37.6821 6.63917 42.5073C11.0446 47.3326 17.1408 50.2736 23.6595 50.7187C30.1781 51.1637 36.6174 49.0785 41.6379 44.8968L56.0626 59.3244C56.2768 59.5386 56.531 59.7085 56.8109 59.8244C57.0907 59.9403 57.3906 60 57.6935 60C57.9964 60 58.2963 59.9403 58.5762 59.8244C58.856 59.7085 59.1103 59.5386 59.3244 59.3244C59.5386 59.1103 59.7085 58.856 59.8244 58.5762C59.9403 58.2963 60 57.9964 60 57.6935C60 57.3906 59.9403 57.0907 59.8244 56.8109C59.7085 56.531 59.5386 56.2768 59.3244 56.0626ZM4.67408 25.4208C4.67408 21.3175 5.89085 17.3063 8.17053 13.8945C10.4502 10.4828 13.6904 7.8236 17.4814 6.25333C21.2724 4.68306 25.4438 4.2722 29.4683 5.07272C33.4928 5.87324 37.1895 7.84917 40.091 10.7507C42.9925 13.6521 44.9684 17.3489 45.7689 21.3733C46.5694 25.3978 46.1586 29.5693 44.5883 33.3602C43.018 37.1512 40.3589 40.3914 36.9471 42.6711C33.5353 44.9508 29.5241 46.1676 25.4208 46.1676C19.9203 46.1615 14.6468 43.9737 10.7574 40.0842C6.86795 36.1948 4.68018 30.9213 4.67408 25.4208Z" fill="white"/>
</svg>
