<svg width="60" height="50" viewBox="0 0 60 50" fill="none" xmlns="http://www.w3.org/2000/svg">
<path d="M60 25C60 25.663 59.7366 26.2989 59.2678 26.7677C58.799 27.2365 58.1631 27.4999 57.5001 27.4999H8.53606L26.7698 45.7301C27.0021 45.9624 27.1864 46.2381 27.3121 46.5416C27.4378 46.845 27.5025 47.1703 27.5025 47.4987C27.5025 47.8272 27.4378 48.1525 27.3121 48.4559C27.1864 48.7594 27.0021 49.0351 26.7698 49.2674C26.5376 49.4997 26.2618 49.6839 25.9584 49.8096C25.6549 49.9353 25.3296 50 25.0011 50C24.6727 50 24.3474 49.9353 24.0439 49.8096C23.7405 49.6839 23.4647 49.4997 23.2325 49.2674L0.733192 26.7687C0.500759 26.5365 0.316368 26.2608 0.190561 25.9573C0.0647545 25.6538 0 25.3285 0 25C0 24.6715 0.0647545 24.3462 0.190561 24.0427C0.316368 23.7392 0.500759 23.4635 0.733192 23.2313L23.2325 0.732599C23.7015 0.263524 24.3378 -4.94251e-09 25.0011 0C25.6645 4.94252e-09 26.3008 0.263524 26.7698 0.732599C27.2389 1.20167 27.5025 1.83788 27.5025 2.50125C27.5025 3.16462 27.2389 3.80083 26.7698 4.2699L8.53606 22.5001H57.5001C58.1631 22.5001 58.799 22.7635 59.2678 23.2323C59.7366 23.7011 60 24.337 60 25Z" fill="white"/>
</svg>
