<svg width="60" height="60" viewBox="0 0 60 60" fill="none" xmlns="http://www.w3.org/2000/svg">
<path d="M30 50.0001H52.5Z" fill="white" fill-opacity="0.5"/>
<path d="M41.25 8.75008C42.2446 7.75552 43.5935 7.19678 45 7.19678C45.6964 7.19678 46.3861 7.33395 47.0295 7.60047C47.6729 7.86698 48.2575 8.25762 48.75 8.75008C49.2425 9.24253 49.6331 9.82717 49.8996 10.4706C50.1661 11.114 50.3033 11.8036 50.3033 12.5001C50.3033 13.1965 50.1661 13.8861 49.8996 14.5296C49.6331 15.173 49.2425 15.7576 48.75 16.2501L17.5 47.5001L7.5 50.0001L10 40.0001L41.25 8.75008Z" fill="white" fill-opacity="0.5"/>
<path d="M30 50.0001H52.5M41.25 8.75008C42.2446 7.75552 43.5935 7.19678 45 7.19678C45.6964 7.19678 46.3861 7.33395 47.0295 7.60047C47.6729 7.86698 48.2575 8.25762 48.75 8.75008C49.2425 9.24253 49.6331 9.82717 49.8996 10.4706C50.1661 11.114 50.3033 11.8036 50.3033 12.5001C50.3033 13.1965 50.1661 13.8861 49.8996 14.5296C49.6331 15.173 49.2425 15.7576 48.75 16.2501L17.5 47.5001L7.5 50.0001L10 40.0001L41.25 8.75008Z" stroke="white" stroke-width="2.5" stroke-linecap="round" stroke-linejoin="round"/>
</svg>
