<svg width="60" height="60" viewBox="0 0 60 60" fill="none" xmlns="http://www.w3.org/2000/svg">
<path d="M8.75 38.7495L18.3223 29.1772C20.2147 27.2848 21.1613 26.3383 22.2031 26.5386C23.2452 26.7393 23.7727 27.9699 24.8271 30.4302L28.8359 39.7847C29.3632 41.0149 29.6274 41.6296 30.1484 41.73C30.6694 41.8302 31.1426 41.3569 32.0889 40.4106L37.1719 35.3286C38.5052 33.9953 39.1716 33.3286 40 33.3286C40.8284 33.3286 41.4948 33.9953 42.8281 35.3286L47.6572 40.1567C48.8132 41.3127 49.3909 41.8913 50.126 42.1958C50.861 42.5003 51.6787 42.4995 53.3135 42.4995H53.75V6.09619C53.7764 6.12074 53.8025 6.14573 53.8281 6.17139C54.9997 7.34293 55 9.22847 55 12.9995V46.9995C55 50.7707 54.9997 52.657 53.8281 53.8286C52.6565 54.9998 50.7709 54.9995 47 54.9995H13C9.22913 54.9995 7.34347 54.9998 6.17188 53.8286C5.0003 52.657 5 50.7707 5 46.9995V12.9995C5 9.22847 5.00033 7.34293 6.17188 6.17139C6.78225 5.5611 7.58637 5.26943 8.75 5.12939V38.7495Z" fill="white"/>
<path d="M13 6H47C48.9139 6 50.2487 6.00229 51.2559 6.1377C52.2342 6.26923 52.7521 6.50989 53.1211 6.87891C53.4901 7.24792 53.7308 7.7658 53.8623 8.74414C53.9977 9.75127 54 11.0861 54 13V47C54 48.9139 53.9977 50.2487 53.8623 51.2559C53.7308 52.2342 53.4901 52.7521 53.1211 53.1211C52.7521 53.4901 52.2342 53.7308 51.2559 53.8623C50.2487 53.9977 48.9139 54 47 54H13C11.0861 54 9.75127 53.9977 8.74414 53.8623C7.7658 53.7308 7.24792 53.4901 6.87891 53.1211C6.50989 52.7521 6.26923 52.2342 6.1377 51.2559C6.00229 50.2487 6 48.9139 6 47V13C6 11.0861 6.00229 9.75127 6.1377 8.74414C6.26923 7.7658 6.50989 7.24792 6.87891 6.87891C7.24792 6.50989 7.7658 6.26923 8.74414 6.1377C9.75127 6.00229 11.0861 6 13 6Z" stroke="white" stroke-width="2"/>
<circle cx="37.5" cy="22.5" r="5" fill="white"/>
</svg>
