<svg width="60" height="60" viewBox="0 0 60 60" fill="none" xmlns="http://www.w3.org/2000/svg">
<path d="M48.5975 38.5975C50.909 36.303 52.6938 34.0227 53.86 32.3875C54.62 31.3217 55 30.7887 55 30C55 29.2113 54.62 28.6783 53.86 27.6125C50.4448 22.8236 41.723 12.5 30 12.5C27.7305 12.5 25.5735 12.8869 23.5457 13.5457M16.8685 16.8685C11.8279 20.268 8.10537 24.8567 6.1401 27.6125C5.38002 28.6783 5 29.2113 5 30C5 30.7887 5.38002 31.3217 6.1401 32.3875C9.55525 37.1765 18.277 47.5 30 47.5C34.977 47.5 39.4127 45.6392 43.1315 43.1315" stroke="#9EAFB2" stroke-width="1.5" stroke-linecap="round" stroke-linejoin="round"/>
<path d="M24.6446 25C23.3196 26.325 22.5 28.1558 22.5 30.1778C22.5 34.2218 25.7782 37.5 29.8222 37.5C31.8442 37.5 33.675 36.6805 35 35.3553" stroke="#9EAFB2" stroke-width="1.5" stroke-linecap="round"/>
<path d="M7.5 7.5L52.5 52.5" stroke="#9EAFB2" stroke-width="1.5" stroke-linecap="round" stroke-linejoin="round"/>
</svg>
